<svg xmlns="http://www.w3.org/2000/svg" viewBox="0 0 100 100">
  <path fill="#FF9900" d="M55.4 66.2c-5.3 3.9-13 6-19.6 6-9.3 0-17.6-3.4-24-9.1-.5-.4-.1-1 .5-.7 6.9 4 15.5 6.4 24.3 6.4 6 0 12.5-1.2 18.5-3.8.9-.4 1.7.6.8 1.2z"/>
  <path fill="#FF9900" d="M58 63.1c-.7-.9-4.6-.4-6.3-.2-.5.1-.6-.4-.1-.7 3.1-2.2 8.2-1.5 8.8-.8.6.7-.2 5.7-3 8.1-.4.3-.8.2-.6-.3.6-1.5 1.9-4.9 1.2-6.1z"/>
  <path fill="#000000" d="M52.1 27.8v-3.8c0-.6.4-1 1-1h18c.6 0 1 .4 1 1v3.2c0 .6-.5 1.3-1.3 2.5l-9.3 13.3c3.5-.1 7.1.4 10.3 2.1.7.4.9 1 1 1.5v4c0 .6-.6 1.2-1.3.9-5.4-2.8-12.5-3.1-18.4.1-.6.3-1.2-.3-1.2-.9v-3.8c0-.6 0-1.7.6-2.6l10.8-15.5h-9.4c-.5 0-1-.4-1-1z"/>
  <path fill="#000000" d="M18.9 46.7h-5.5c-.5 0-1-.4-1-.9V27.9c0-.6.5-1 1.1-1h5.1c.5 0 1 .4 1 .9v2.3h.1c1.3-3.6 3.8-5.3 7.2-5.3 3.4 0 5.5 1.7 7.1 5.3 1.3-3.6 4.3-5.3 7.5-5.3 2.3 0 4.8.9 6.3 3.1 1.7 2.4 1.4 5.8 1.4 8.8v17.7c0 .6-.5 1-1.1 1h-5.5c-.6 0-1-.5-1-1V37.9c0-1.1.1-3.9-.1-5-.4-1.8-1.6-2.3-3.1-2.3-1.3 0-2.6.9-3.2 2.3-.6 1.4-.5 3.7-.5 5v17.8c0 .6-.5 1-1.1 1h-5.5c-.6 0-1-.5-1-1l0-17.8c0-2.9.5-7.2-3.1-7.2-3.6 0-3.5 4.2-3.5 7.2v17.8c-.1.5-.6 1-1.1 1z"/>
</svg> 