<svg xmlns="http://www.w3.org/2000/svg" viewBox="0 0 100 100">
  <path fill="#000000" d="M75.5 63.4c-1 2.2-2.1 4.2-3.4 6-1.8 2.6-3.3 4.5-4.4 5.5-1.7 1.6-3.6 2.4-5.6 2.4-1.4 0-3.1-0.4-5.1-1.3-2-0.8-3.8-1.3-5.5-1.3-1.8 0-3.7 0.4-5.7 1.3-2 0.8-3.6 1.3-4.8 1.3-1.9 0.1-3.7-0.7-5.6-2.4-1.2-1.1-2.7-3-4.6-5.7-2-2.8-3.6-6.1-4.8-9.8-1.3-4-2-7.9-2-11.7 0-4.3 0.9-8 2.8-11.1 1.5-2.5 3.4-4.4 5.9-5.8 2.5-1.4 5.1-2.1 8-2.2 1.6 0 3.6 0.5 6.1 1.5 2.5 1 4.1 1.5 4.8 1.5 0.5 0 2.3-0.6 5.2-1.7 2.8-1 5.2-1.4 7.2-1.2 5.3 0.4 9.3 2.5 12 6.2-4.8 2.9-7.1 6.9-7.1 12.1 0 4 1.5 7.4 4.5 10 1.3 1.3 2.8 2.2 4.5 2.8-0.4 1.1-0.7 2.1-1.1 3.1zM62.9 20.7c0 3.1-1.1 6.1-3.4 8.7-2.7 3.2-6 5.1-9.6 4.8-0.1-0.4-0.1-0.8-0.1-1.3 0-3 1.3-6.2 3.6-8.9 1.2-1.3 2.7-2.4 4.5-3.3 1.8-0.8 3.5-1.3 5.1-1.4 0 0.5 0 0.9 0 1.4z"/>
</svg> 