<svg xmlns="http://www.w3.org/2000/svg" viewBox="0 0 100 100">
  <path fill="#4285F4" d="M94.3 51.2c0-3.1-.3-6.2-.8-9.2H50v17.3h24.8c-1.1 5.7-4.3 10.6-9.2 13.9v11.5h14.9c8.7-8 13.8-19.8 13.8-33.5z"/>
  <path fill="#34A853" d="M50 95c12.4 0 22.8-4.1 30.4-11.2L65.6 72.3c-4.1 2.8-9.4 4.4-15.6 4.4-12 0-22.1-8.1-25.8-18.9H8.7v11.9C16.3 84.8 32 95 50 95z"/>
  <path fill="#FBBC05" d="M24.2 57.8c-.9-2.8-1.4-5.8-1.4-8.8s.5-6 1.4-8.8V28.3H8.7C5.3 34.5 3.3 42 3.3 50s2 15.5 5.4 21.7l15.5-13.9z"/>
  <path fill="#EA4335" d="M50 22.3c6.8 0 12.8 2.3 17.6 6.9l13.2-13.2C72.9 8.6 62.5 4 50 4 32 4 16.3 14.2 8.7 29.3l15.5 11.9c3.7-10.8 13.8-18.9 25.8-18.9z"/>
</svg> 